<svg version="1.1" id="Layer_1" xmlns="http://www.w3.org/2000/svg" xmlns:xlink="http://www.w3.org/1999/xlink" x="0px" y="0px"
	 width="100%" viewBox="0 0 500 500" enable-background="new 0 0 500 500" xml:space="preserve">
<path fill="#FFBD7A" opacity="1.000000" stroke="none" 
	d="
M280.000000,501.000000 
	C186.666687,501.000000 93.833374,501.000000 1.000050,501.000000 
	C1.000033,334.333405 1.000033,167.666794 1.000017,1.000139 
	C167.666565,1.000093 334.333130,1.000093 500.999756,1.000046 
	C500.999847,167.666519 500.999847,334.333038 500.999939,500.999786 
	C427.500000,501.000000 354.000000,501.000000 280.000000,501.000000 
M135.183182,320.756409 
	C135.446854,321.116577 135.708817,321.790161 135.974457,321.791626 
	C145.751434,321.845428 155.528763,321.836914 166.424210,321.836914 
	C165.199127,320.132996 164.543442,319.188660 163.853333,318.270172 
	C163.139053,317.319519 161.753723,316.393677 161.754120,315.457458 
	C161.759949,301.805054 161.326706,288.108368 162.296478,274.514832 
	C163.037277,264.130615 172.257706,257.133331 182.778091,257.139648 
	C192.258163,257.145355 198.393127,263.080933 200.255051,274.192657 
	C200.638000,276.478058 200.806244,278.823212 200.820572,281.142395 
	C200.881271,290.969482 200.863815,300.797180 200.837234,310.624542 
	C200.828262,313.943176 201.894440,317.746552 197.152283,319.124207 
	C196.828094,319.218414 196.938446,320.808319 196.846893,321.700928 
	C207.460724,321.700928 217.683899,321.700928 228.157730,321.700928 
	C227.978622,320.573792 228.012207,319.168854 227.704010,319.089386 
	C223.480057,318.000214 224.011505,314.728546 224.019424,311.602448 
	C224.049850,299.609711 223.909393,287.615295 224.061752,275.624420 
	C224.248932,260.894043 218.876602,249.031860 205.510223,242.259979 
	C191.697754,235.262131 177.864639,236.193756 164.824753,244.972549 
	C163.946823,245.563599 163.019730,246.081604 161.634796,246.927017 
	C161.634796,230.830231 161.624817,215.350998 161.642166,199.871811 
	C161.646240,196.234833 160.533157,192.156235 165.267288,190.229980 
	C165.517258,190.128296 165.360092,189.026016 165.400772,188.226212 
	C155.247925,188.226212 145.272430,188.226212 135.020813,188.226212 
	C135.245697,189.346436 135.252853,190.462921 135.514908,190.526337 
	C139.877151,191.582306 139.086838,195.018600 139.087463,198.065948 
	C139.095139,235.543503 139.066345,273.021118 139.132339,310.498535 
	C139.139038,314.300842 139.532837,318.032684 135.183182,320.756409 
M467.517853,239.674072 
	C463.085510,239.674072 458.653168,239.674072 452.655670,239.674072 
	C454.633423,242.048843 455.678192,243.303345 456.937286,244.815231 
	C449.386230,253.508652 441.746063,262.304657 433.114716,272.241791 
	C433.114716,268.953308 433.114716,267.338715 433.114716,265.724121 
	C433.114716,243.396225 433.105865,221.068314 433.124756,198.740433 
	C433.127411,195.572418 432.055573,191.900101 436.674255,190.638199 
	C436.953217,190.562012 436.803558,188.916977 436.866028,187.768234 
	C427.544800,187.768234 418.561737,187.734268 409.579681,187.815414 
	C408.568268,187.824554 407.522003,188.412079 406.605042,188.931274 
	C406.488220,188.997437 406.921204,190.809601 407.335907,190.919357 
	C411.368469,191.986481 410.314819,195.203171 410.317261,197.850479 
	C410.352173,235.841217 410.343903,273.832001 410.335419,311.822754 
	C410.334778,314.713562 411.079315,317.941040 407.012726,319.085266 
	C406.665619,319.182953 406.729645,320.741882 406.574982,321.813782 
	C416.916779,321.813782 426.863861,321.813782 437.764282,321.813782 
	C427.666870,309.890930 434.090179,301.464752 443.018738,293.127014 
	C447.311951,299.026337 451.574524,304.743500 455.675568,310.574249 
	C457.945038,313.800873 462.133148,316.638275 457.607727,321.737579 
	C469.331604,321.737579 480.074921,321.737579 492.507080,321.737579 
	C483.957794,315.475372 479.386078,307.501862 473.810211,300.337463 
	C467.913818,292.761292 462.199829,285.043152 456.296295,277.241791 
	C465.820190,266.169830 475.025238,255.430206 484.306061,244.756470 
	C485.003326,243.954514 486.280487,243.681198 487.217377,243.056122 
	C488.119812,242.454056 488.930481,241.714478 489.781464,241.035339 
	C488.689880,240.582031 487.606201,239.760468 486.505371,239.736725 
	C480.509613,239.607376 474.509583,239.674576 467.517853,239.674072 
M81.748276,208.067261 
	C91.076279,208.066345 100.404457,208.032288 109.732224,208.078735 
	C114.272911,208.101349 119.260719,206.702423 122.428764,211.701080 
	C122.521286,211.847061 123.311745,211.550720 124.244781,211.369949 
	C124.244781,203.084442 124.277504,194.786407 124.191566,186.489594 
	C124.183434,185.704361 123.584457,184.733734 122.954720,184.232269 
	C122.666489,184.002777 121.158005,184.557068 121.020630,185.006073 
	C119.993530,188.363022 117.319656,187.775925 114.874390,187.776169 
	C83.892021,187.779251 52.909630,187.795044 21.927309,187.756210 
	C18.190905,187.751526 13.923343,189.050201 11.699677,184.272186 
	C11.560766,183.973709 10.222538,184.233383 9.332022,184.233383 
	C9.332022,193.493668 9.332022,202.444397 9.332022,211.549652 
	C10.351281,211.549652 11.754056,211.785187 11.859612,211.514618 
	C13.683567,206.839584 17.672358,208.159286 21.112101,208.080933 
	C24.441811,208.005081 27.774601,208.064499 31.106039,208.064499 
	C38.864525,208.064499 46.623013,208.064499 54.745174,208.064499 
	C54.745174,210.375366 54.745171,212.012421 54.745171,213.649475 
	C54.745152,246.297562 54.734085,278.945648 54.762688,311.593719 
	C54.765461,314.759125 55.222916,317.977966 50.976906,319.019318 
	C50.584450,319.115601 50.550774,320.674805 50.301998,321.767822 
	C61.418140,321.767822 72.177063,321.767822 83.977783,321.767822 
	C82.918999,320.200806 82.285957,319.270752 81.660057,318.335907 
	C80.772003,317.009552 79.121788,315.682892 79.116280,314.350891 
	C78.974274,280.037659 78.987160,245.723694 79.079147,211.410141 
	C79.082130,210.298691 80.197678,209.190216 81.748276,208.067261 
M379.927887,253.631073 
	C367.363922,236.285706 349.510895,233.737274 324.374878,245.838593 
	C324.207184,243.847107 324.046326,241.937042 323.856628,239.684723 
	C315.706177,239.684723 307.729614,239.638351 299.755249,239.750412 
	C298.877319,239.762756 298.012177,240.682846 297.141113,241.181946 
	C297.677887,241.868042 298.346039,242.489044 298.724640,243.253479 
	C299.577454,244.975281 300.941498,246.763245 300.954742,248.532806 
	C301.110229,269.363953 301.067902,290.196747 301.040314,311.028992 
	C301.036163,314.163940 302.196075,317.875824 297.464996,319.032379 
	C297.145538,319.110504 297.206635,320.745331 297.089783,321.663635 
	C307.585663,321.663635 317.804108,321.663635 328.231506,321.663635 
	C328.133850,320.665375 328.250549,319.556152 327.982086,319.453430 
	C322.649261,317.412445 324.229370,312.862793 324.160431,308.984558 
	C324.065643,303.653168 324.025269,298.315918 324.164886,292.986511 
	C324.339111,286.338440 324.145233,279.607605 325.147614,273.071594 
	C326.622437,263.455231 334.412170,257.349701 344.104828,257.140778 
	C353.133057,256.946228 359.670166,262.430969 361.737152,272.300385 
	C362.380035,275.370026 362.470551,278.591339 362.501770,281.746338 
	C362.595795,291.244965 362.561310,300.745148 362.523071,310.244537 
	C362.509094,313.717560 363.712402,317.740875 358.755829,319.249298 
	C358.436615,319.346466 358.509918,320.733429 358.374573,321.708252 
	C368.991547,321.708252 379.385376,321.708252 390.003357,321.708252 
	C389.836426,320.590210 389.862671,319.159668 389.577118,319.094421 
	C385.234314,318.102692 385.868073,314.764954 385.872101,311.665741 
	C385.888184,299.333008 385.904236,287.000183 385.866180,274.667572 
	C385.843689,267.376862 384.381287,260.452423 379.927887,253.631073 
M274.067902,258.508972 
	C275.058441,252.817276 271.237305,246.014847 277.953186,241.606934 
	C278.127380,241.492615 277.850555,240.691116 277.750916,239.970428 
	C267.650421,239.970428 257.577423,239.970428 247.225952,239.970428 
	C247.359772,241.055664 247.295822,242.429688 247.572906,242.502304 
	C252.232422,243.723190 251.090622,247.426834 251.094818,250.569672 
	C251.121719,270.721771 251.118423,290.873932 251.098206,311.026062 
	C251.095047,314.179108 252.180969,317.833893 247.600449,319.126282 
	C247.295212,319.212433 247.412277,320.795288 247.332855,321.682800 
	C257.752869,321.682800 267.805084,321.682800 278.107635,321.682800 
	C277.911194,320.541565 277.940643,319.147797 277.615540,319.059509 
	C272.998718,317.805420 274.080475,314.137634 274.076965,310.969208 
	C274.057953,293.814911 274.067902,276.660614 274.067902,258.508972 
M269.965607,222.631622 
	C276.150146,217.643723 278.033905,211.239517 275.127991,205.081253 
	C272.443756,199.392807 266.286011,196.207001 260.314972,197.417480 
	C252.201523,199.062286 247.321426,206.958923 249.623962,214.717041 
	C252.129089,223.157837 260.133606,226.520187 269.965607,222.631622 
z"/>
<path fill="#0430FD" opacity="1.000000" stroke="none" 
	d="
M135.187073,320.332275 
	C139.532837,318.032684 139.139038,314.300842 139.132339,310.498535 
	C139.066345,273.021118 139.095139,235.543503 139.087463,198.065948 
	C139.086838,195.018600 139.877151,191.582306 135.514908,190.526337 
	C135.252853,190.462921 135.245697,189.346436 135.020813,188.226212 
	C145.272430,188.226212 155.247925,188.226212 165.400772,188.226212 
	C165.360092,189.026016 165.517258,190.128296 165.267288,190.229980 
	C160.533157,192.156235 161.646240,196.234833 161.642166,199.871811 
	C161.624817,215.350998 161.634796,230.830231 161.634796,246.927017 
	C163.019730,246.081604 163.946823,245.563599 164.824753,244.972549 
	C177.864639,236.193756 191.697754,235.262131 205.510223,242.259979 
	C218.876602,249.031860 224.248932,260.894043 224.061752,275.624420 
	C223.909393,287.615295 224.049850,299.609711 224.019424,311.602448 
	C224.011505,314.728546 223.480057,318.000214 227.704010,319.089386 
	C228.012207,319.168854 227.978622,320.573792 228.157730,321.700928 
	C217.683899,321.700928 207.460724,321.700928 196.846893,321.700928 
	C196.938446,320.808319 196.828094,319.218414 197.152283,319.124207 
	C201.894440,317.746552 200.828262,313.943176 200.837234,310.624542 
	C200.863815,300.797180 200.881271,290.969482 200.820572,281.142395 
	C200.806244,278.823212 200.638000,276.478058 200.255051,274.192657 
	C198.393127,263.080933 192.258163,257.145355 182.778091,257.139648 
	C172.257706,257.133331 163.037277,264.130615 162.296478,274.514832 
	C161.326706,288.108368 161.759949,301.805054 161.754120,315.457458 
	C161.753723,316.393677 163.139053,317.319519 163.853333,318.270172 
	C164.543442,319.188660 165.199127,320.132996 166.424210,321.836914 
	C155.528763,321.836914 145.751434,321.845428 135.974457,321.791626 
	C135.708817,321.790161 135.446854,321.116577 135.187073,320.332275 
z"/>
<path fill="#0430FD" opacity="1.000000" stroke="none" 
	d="
M468.014465,239.674103 
	C474.509583,239.674576 480.509613,239.607376 486.505371,239.736725 
	C487.606201,239.760468 488.689880,240.582031 489.781464,241.035339 
	C488.930481,241.714478 488.119812,242.454056 487.217377,243.056122 
	C486.280487,243.681198 485.003326,243.954514 484.306061,244.756470 
	C475.025238,255.430206 465.820190,266.169830 456.296295,277.241791 
	C462.199829,285.043152 467.913818,292.761292 473.810211,300.337463 
	C479.386078,307.501862 483.957794,315.475372 492.507080,321.737579 
	C480.074921,321.737579 469.331604,321.737579 457.607727,321.737579 
	C462.133148,316.638275 457.945038,313.800873 455.675568,310.574249 
	C451.574524,304.743500 447.311951,299.026337 443.018738,293.127014 
	C434.090179,301.464752 427.666870,309.890930 437.764282,321.813782 
	C426.863861,321.813782 416.916779,321.813782 406.574982,321.813782 
	C406.729645,320.741882 406.665619,319.182953 407.012726,319.085266 
	C411.079315,317.941040 410.334778,314.713562 410.335419,311.822754 
	C410.343903,273.832001 410.352173,235.841217 410.317261,197.850479 
	C410.314819,195.203171 411.368469,191.986481 407.335907,190.919357 
	C406.921204,190.809601 406.488220,188.997437 406.605042,188.931274 
	C407.522003,188.412079 408.568268,187.824554 409.579681,187.815414 
	C418.561737,187.734268 427.544800,187.768234 436.866028,187.768234 
	C436.803558,188.916977 436.953217,190.562012 436.674255,190.638199 
	C432.055573,191.900101 433.127411,195.572418 433.124756,198.740433 
	C433.105865,221.068314 433.114716,243.396225 433.114716,265.724121 
	C433.114716,267.338715 433.114716,268.953308 433.114716,272.241791 
	C441.746063,262.304657 449.386230,253.508652 456.937286,244.815231 
	C455.678192,243.303345 454.633423,242.048843 452.655670,239.674072 
	C458.653168,239.674072 463.085510,239.674072 468.014465,239.674103 
z"/>
<path fill="#012EFF" opacity="1.000000" stroke="none" 
	d="
M81.271439,208.073792 
	C80.197678,209.190216 79.082130,210.298691 79.079147,211.410141 
	C78.987160,245.723694 78.974274,280.037659 79.116280,314.350891 
	C79.121788,315.682892 80.772003,317.009552 81.660057,318.335907 
	C82.285957,319.270752 82.918999,320.200806 83.977783,321.767822 
	C72.177063,321.767822 61.418140,321.767822 50.301998,321.767822 
	C50.550774,320.674805 50.584450,319.115601 50.976906,319.019318 
	C55.222916,317.977966 54.765461,314.759125 54.762688,311.593719 
	C54.734085,278.945648 54.745152,246.297562 54.745171,213.649475 
	C54.745171,212.012421 54.745174,210.375366 54.745174,208.064499 
	C46.623013,208.064499 38.864525,208.064499 31.106039,208.064499 
	C27.774601,208.064499 24.441811,208.005081 21.112101,208.080933 
	C17.672358,208.159286 13.683567,206.839584 11.859612,211.514618 
	C11.754056,211.785187 10.351281,211.549652 9.332022,211.549652 
	C9.332022,202.444397 9.332022,193.493668 9.332022,184.233383 
	C10.222538,184.233383 11.560766,183.973709 11.699677,184.272186 
	C13.923343,189.050201 18.190905,187.751526 21.927309,187.756210 
	C52.909630,187.795044 83.892021,187.779251 114.874390,187.776169 
	C117.319656,187.775925 119.993530,188.363022 121.020630,185.006073 
	C121.158005,184.557068 122.666489,184.002777 122.954720,184.232269 
	C123.584457,184.733734 124.183434,185.704361 124.191566,186.489594 
	C124.277504,194.786407 124.244781,203.084442 124.244781,211.369949 
	C123.311745,211.550720 122.521286,211.847061 122.428764,211.701080 
	C119.260719,206.702423 114.272911,208.101349 109.732224,208.078735 
	C100.404457,208.032288 91.076279,208.066345 81.271439,208.073792 
z"/>
<path fill="#022FFE" opacity="1.000000" stroke="none" 
	d="
M380.112000,253.944244 
	C384.381287,260.452423 385.843689,267.376862 385.866180,274.667572 
	C385.904236,287.000183 385.888184,299.333008 385.872101,311.665741 
	C385.868073,314.764954 385.234314,318.102692 389.577118,319.094421 
	C389.862671,319.159668 389.836426,320.590210 390.003357,321.708252 
	C379.385376,321.708252 368.991547,321.708252 358.374573,321.708252 
	C358.509918,320.733429 358.436615,319.346466 358.755829,319.249298 
	C363.712402,317.740875 362.509094,313.717560 362.523071,310.244537 
	C362.561310,300.745148 362.595795,291.244965 362.501770,281.746338 
	C362.470551,278.591339 362.380035,275.370026 361.737152,272.300385 
	C359.670166,262.430969 353.133057,256.946228 344.104828,257.140778 
	C334.412170,257.349701 326.622437,263.455231 325.147614,273.071594 
	C324.145233,279.607605 324.339111,286.338440 324.164886,292.986511 
	C324.025269,298.315918 324.065643,303.653168 324.160431,308.984558 
	C324.229370,312.862793 322.649261,317.412445 327.982086,319.453430 
	C328.250549,319.556152 328.133850,320.665375 328.231506,321.663635 
	C317.804108,321.663635 307.585663,321.663635 297.089783,321.663635 
	C297.206635,320.745331 297.145538,319.110504 297.464996,319.032379 
	C302.196075,317.875824 301.036163,314.163940 301.040314,311.028992 
	C301.067902,290.196747 301.110229,269.363953 300.954742,248.532806 
	C300.941498,246.763245 299.577454,244.975281 298.724640,243.253479 
	C298.346039,242.489044 297.677887,241.868042 297.141113,241.181946 
	C298.012177,240.682846 298.877319,239.762756 299.755249,239.750412 
	C307.729614,239.638351 315.706177,239.684723 323.856628,239.684723 
	C324.046326,241.937042 324.207184,243.847107 324.374878,245.838593 
	C349.510895,233.737274 367.363922,236.285706 380.112000,253.944244 
z"/>
<path fill="#022FFE" opacity="1.000000" stroke="none" 
	d="
M274.067902,259.007629 
	C274.067902,276.660614 274.057953,293.814911 274.076965,310.969208 
	C274.080475,314.137634 272.998718,317.805420 277.615540,319.059509 
	C277.940643,319.147797 277.911194,320.541565 278.107635,321.682800 
	C267.805084,321.682800 257.752869,321.682800 247.332855,321.682800 
	C247.412277,320.795288 247.295212,319.212433 247.600449,319.126282 
	C252.180969,317.833893 251.095047,314.179108 251.098206,311.026062 
	C251.118423,290.873932 251.121719,270.721771 251.094818,250.569672 
	C251.090622,247.426834 252.232422,243.723190 247.572906,242.502304 
	C247.295822,242.429688 247.359772,241.055664 247.225952,239.970428 
	C257.577423,239.970428 267.650421,239.970428 277.750916,239.970428 
	C277.850555,240.691116 278.127380,241.492615 277.953186,241.606934 
	C271.237305,246.014847 275.058441,252.817276 274.067902,259.007629 
z"/>
<path fill="#0531FD" opacity="1.000000" stroke="none" 
	d="
M269.630798,222.806030 
	C260.133606,226.520187 252.129089,223.157837 249.623962,214.717041 
	C247.321426,206.958923 252.201523,199.062286 260.314972,197.417480 
	C266.286011,196.207001 272.443756,199.392807 275.127991,205.081253 
	C278.033905,211.239517 276.150146,217.643723 269.630798,222.806030 
z"/>
</svg>